<?xml version="1.0" encoding="utf-8"?>
<!-- Generator: Adobe Illustrator 26.5.0, SVG Export Plug-In . SVG Version: 6.00 Build 0)  -->
<svg version="1.1" id="Layer_1" xmlns="http://www.w3.org/2000/svg" xmlns:xlink="http://www.w3.org/1999/xlink" x="0px" y="0px"
	 viewBox="0 0 512 512" style="enable-background:new 0 0 512 512;" xml:space="preserve">
<style type="text/css">
	.st0{fill:#FFFFFF;}
</style>
<path class="st0" d="M256,386.6c-25.6,0-49.4-7.1-70.6-21.2c-21.2-14.1-37.1-31.8-47.7-53.8L31.8,128C9.7,167.7,0,211,0,256
	c0,64.4,21.2,120.1,62.7,167.7s93.6,75.9,155.4,85.6l74.2-128.9C285.1,383.1,271.9,386.6,256,386.6"/>
<path class="st0" d="M175.7,150.1c23.8-18.5,50.3-26.5,80.3-26.5h219.8c-23-38.8-53.8-67.1-92.7-89.2C344.3,11.5,301.9,0,256,0
	c-39.7,0-77.7,8.8-112.1,25.6s-67.1,41.5-90,73.3L128,220.7C135.1,192.4,151.8,168.6,175.7,150.1"/>
<path class="st0" d="M492.6,159.8H344.3c25.6,25.6,43.3,59.1,43.3,96.2c0,27.4-7.9,52.1-23,75L258.6,512
	c69.7-0.9,129.8-25.6,179.2-75.9S512,325.7,512,256C512,223.3,506.7,188.9,492.6,159.8"/>
<path class="st0" d="M256,158.9c53,0,97.1,44.1,97.1,97.1S309,353.1,256,353.1S158.9,309,158.9,256S203,158.9,256,158.9"/>
</svg>
